<svg xmlns="http://www.w3.org/2000/svg" viewBox="0 0 85 24" fill="none"><path d="m5.48 7.806.206 2.501-.137.046c-.982-1.66-1.667-2.365-2.42-2.365-.617 0-1.05.432-1.05 1.183 0 2.455 4.155 3.16 4.155 6.798 0 2.092-1.438 3.297-3.311 3.297-.685 0-1.621-.16-2.284-.387l-.182-2.842.137-.045c1.027 1.841 1.94 2.864 2.831 2.864.685 0 1.028-.523 1.028-1.364 0-2.796-3.905-3.547-3.905-6.89 0-2 1.462-3 3.266-3 .525 0 1.233.068 1.667.204Zm1.761 11.141v-.045c.275-.978.389-1.75.389-3.41v-3.866c0-1.432-.251-2.25-.777-3.024V8.58l3.083-1.136v2.046l.069.023c.433-.978 1.278-1.956 2.603-1.956 1.096 0 1.917.682 2.1 1.956h.022c.457-.978 1.28-1.956 2.58-1.956 1.35 0 2.17 1 2.17 2.729v5.206c0 1.637.114 2.433.388 3.41v.046H16.74v-.045c.274-.978.365-1.796.365-3.388v-4.98c0-.818-.25-1.295-1.005-1.295a1.515 1.515 0 0 0-1.37.864v5.388c0 1.637.092 2.433.411 3.41v.046h-3.15v-.045c.274-.978.389-1.796.389-3.388v-4.98c0-.818-.275-1.295-1.028-1.295-.502 0-1.028.25-1.347.864v5.411c0 1.592.114 2.41.365 3.388v.045H7.242Zm20.379-.113-3.037.25.73-3.342c-.707 1.955-1.735 3.546-2.945 3.546-1.005 0-1.713-1.068-1.69-3.251.046-3.842 2.398-8.48 5.823-8.48.73 0 1.347.25 1.735.545l.708-.546h.137L27.21 16.06c-.343 1.591-.388 2.387.41 2.728v.046Zm-4.864-3.343c-.023 1.41.342 1.82.776 1.82.663 0 1.37-1.07 2.101-3.525l1.028-4.48.023-.022c.137-.932-.092-1.273-.571-1.273-1.713 0-3.334 4.547-3.357 7.48Zm6.697 3.456v-.045c.297-.978.411-1.75.411-3.41v-3.843c0-1.433-.274-2.251-.8-3.024v-.046l3.107-1.136v2.66c.73-.932 1.598-2.683 2.991-2.57l-.046 2.706h-.068a4.363 4.363 0 0 0-1.553-.318c-.502 0-.936.25-1.256.636v4.957c0 1.592.069 2.41.366 3.388v.045h-3.152Zm11.55-1.432c-.343.864-1.096 1.66-2.26 1.66-1.165 0-2.079-.705-2.079-2.888v-7.98h-.822v-.16l3.014-2.91h.183v2.706h1.781v.364h-1.78v7.89c0 1.204.342 1.659 1.027 1.659.456 0 .73-.227.867-.41l.069.069Zm7.084-2.07c-.48 0-.936-.113-1.37-.34-.502.204-.8.477-.8.91 0 .522.366.863 1.828.931l1.164.046c2.33.09 3.608.887 3.563 2.637-.046 2.024-1.759 4.207-4.864 4.207-1.964 0-3.517-.887-3.517-2.41 0-1.183.913-1.956 1.918-2.251-1.028-.319-1.53-.978-1.53-1.91 0-1.41 1.12-2.07 1.941-2.342a4.063 4.063 0 0 1-1.827-3.41c0-2.229 1.69-3.957 3.471-3.957.868 0 1.713.41 2.352 1.069l2.216-1.796.045.022v2.32h-.068l-1.941-.273c.548.682.913 1.614.913 2.614 0 2.206-1.713 3.934-3.494 3.934Zm0-.408c.868 0 1.21-1.25 1.21-3.525 0-2.273-.342-3.547-1.233-3.547-.867 0-1.164 1.274-1.164 3.547 0 2.274.297 3.525 1.187 3.525Zm-2.535 6.002c0 1.614 1.165 2.251 2.512 2.251 1.941 0 3.152-1.25 3.175-2.524 0-.955-.708-1.205-2.627-1.296l-1.187-.068a5.994 5.994 0 0 1-1.188-.16c-.342.342-.685.91-.685 1.797Zm11.464-1.75c-2.215 0-4.065-2.593-4.065-5.844 0-3.251 1.85-5.889 4.065-5.889 2.192 0 4.065 2.638 4.065 5.889 0 3.251-1.873 5.843-4.065 5.843Zm0-.387c1.279 0 1.576-2.206 1.576-5.457s-.32-5.48-1.576-5.48c-1.279 0-1.599 2.229-1.599 5.48 0 3.251.32 5.457 1.599 5.457Zm11.614-.068-3.037.25.731-3.342c-.708 1.955-1.735 3.546-2.946 3.546-1.005 0-1.712-1.068-1.69-3.251.046-3.842 2.398-8.48 5.824-8.48.73 0 1.347.25 1.735.545l.708-.546h.137l-1.873 8.504c-.342 1.591-.388 2.387.412 2.728v.046Zm-4.863-3.343c-.023 1.41.342 1.82.776 1.82.662 0 1.37-1.07 2.1-3.525l1.028-4.48.023-.022c.137-.932-.091-1.273-.57-1.273-1.713 0-3.335 4.547-3.357 7.48Zm6.651 3.456v-.045c.206-.705.365-1.364.365-2.865V5.032c0-1.296-.274-2.046-.799-2.75v-.046l3.151-.978v14.779c0 1.455.183 2.183.412 2.865v.045h-3.129Zm9.056-11.14.205 2.5-.137.046c-.982-1.66-1.667-2.365-2.42-2.365-.617 0-1.05.432-1.05 1.183 0 2.455 4.155 3.16 4.155 6.798 0 2.092-1.438 3.297-3.31 3.297-.686 0-1.622-.16-2.285-.387l-.182-2.842.137-.045c1.028 1.841 1.94 2.864 2.831 2.864.686 0 1.028-.523 1.028-1.364 0-2.796-3.905-3.547-3.905-6.89 0-2 1.462-3 3.266-3 .525 0 1.233.068 1.667.204Zm3.13 11.254c-.73 0-1.37-.637-1.37-1.387s.64-1.364 1.37-1.364c.777 0 1.394.614 1.394 1.364 0 .75-.617 1.387-1.393 1.387Z" fill="#000"/></svg>